<?xml version="1.0" standalone="no"?>
<!DOCTYPE svg PUBLIC "-//W3C//DTD SVG 20010904//EN"
 "http://www.w3.org/TR/2001/REC-SVG-20010904/DTD/svg10.dtd">
<svg version="1.0" xmlns="http://www.w3.org/2000/svg"
 width="1024.000000pt" height="1024.000000pt" viewBox="0 0 1024.000000 1024.000000"
 preserveAspectRatio="xMidYMid meet">

<g transform="translate(0.000000,1024.000000) scale(0.100000,-0.100000)"
fill="#000000" stroke="none">
<path d="M4941 7015 c-208 -47 -367 -138 -506 -287 -258 -278 -324 -675 -173
-1031 25 -57 58 -72 90 -40 20 20 20 20 -15 114 -48 129 -60 207 -54 352 7
175 42 289 130 425 115 177 289 305 494 364 66 20 100 23 228 22 136 0 158 -3
235 -28 104 -35 167 -65 245 -121 163 -116 283 -291 336 -490 29 -112 30 -298
0 -410 -88 -336 -373 -582 -724 -627 -118 -15 -244 -2 -361 38 l-78 26 -21
-20 c-26 -27 -17 -66 20 -81 123 -49 338 -73 482 -52 368 54 674 326 772 686
32 117 32 345 0 465 -25 96 -83 225 -132 297 -124 182 -318 322 -529 384 -98
28 -342 36 -439 14z"/>
<path d="M5053 6759 c-142 -13 -279 -77 -391 -183 -201 -191 -267 -489 -162
-739 l28 -68 -53 -217 c-59 -240 -70 -292 -61 -292 3 0 108 49 234 109 l228
109 60 -20 c87 -30 240 -35 340 -13 237 53 412 210 489 439 115 342 -77 727
-421 847 -72 24 -194 36 -291 28z m212 -104 c107 -27 184 -72 265 -154 123
-124 171 -238 171 -411 1 -404 -400 -676 -777 -529 l-51 20 -159 -74 c-88 -40
-160 -69 -161 -63 -2 6 14 85 35 176 l38 166 -29 62 c-103 221 -50 493 128
661 70 65 177 125 261 145 79 19 206 19 279 1z"/>
<path d="M5082 6328 c-75 -13 -147 -70 -176 -140 -22 -51 -20 -143 3 -193 40
-86 120 -135 221 -135 102 0 175 46 216 135 84 179 -66 368 -264 333z m128
-115 c41 -28 49 -45 50 -101 0 -67 -27 -108 -83 -123 -49 -13 -89 -4 -127 28
-27 23 -30 30 -30 86 0 43 6 69 18 85 32 41 129 55 172 25z"/>
<path d="M3225 4611 c-83 -21 -154 -90 -176 -169 -16 -57 -16 -171 0 -229 15
-56 67 -121 116 -147 57 -30 193 -30 250 0 45 23 105 103 105 140 0 22 -4 24
-52 24 -51 0 -54 -2 -73 -37 -36 -68 -130 -81 -193 -28 -75 63 -67 288 12 336
39 24 113 25 145 3 13 -9 29 -32 37 -50 14 -33 16 -34 70 -34 l57 0 -7 33
c-10 51 -56 110 -108 135 -50 25 -135 36 -183 23z"/>
<path d="M3610 4330 l0 -280 195 0 195 0 0 45 0 45 -135 0 -135 0 0 75 0 75
121 0 c121 0 121 0 115 23 -3 12 -6 32 -6 45 0 22 -2 22 -115 22 l-115 0 0 71
0 70 135 -3 135 -3 0 48 0 47 -195 0 -195 0 0 -280z"/>
<path d="M4080 4330 l0 -280 60 0 60 0 2 183 3 182 96 -150 c53 -82 104 -165
115 -182 18 -32 21 -33 81 -33 l63 0 0 280 0 280 -60 0 -60 0 -2 -187 -3 -186
-64 99 c-35 54 -89 138 -119 187 l-54 87 -59 0 -59 0 0 -280z"/>
<path d="M4630 4565 l0 -44 83 -3 82 -3 3 -232 2 -233 60 0 60 0 0 235 0 235
85 0 85 0 0 45 0 45 -230 0 -230 0 0 -45z"/>
<path d="M5170 4330 l0 -280 78 -2 c42 -1 128 -3 189 -3 123 0 122 -1 115 63
l-4 32 -129 0 -129 0 0 75 0 75 115 0 115 0 0 45 0 45 -117 0 -118 0 3 70 4
70 132 0 133 0 -1 43 -2 42 -192 3 -192 2 0 -280z"/>
<path d="M5640 4331 l0 -281 60 0 60 0 0 100 0 100 48 0 47 0 53 -105 52 -106
65 3 c36 1 64 5 63 8 -2 3 -29 54 -62 113 l-58 109 35 29 c95 78 81 226 -28
283 -34 18 -62 22 -187 24 l-148 4 0 -281z m283 160 c15 -14 22 -34 22 -61 0
-61 -27 -81 -113 -88 l-70 -5 -4 82 c-2 45 -1 86 1 92 2 8 27 10 73 7 54 -4
75 -10 91 -27z"/>
<path d="M6495 4558 c-10 -29 -56 -154 -102 -277 -45 -124 -83 -226 -83 -228
0 -2 26 -3 59 -3 l59 0 22 60 23 61 105 -3 105 -3 20 -57 19 -58 59 0 c32 0
59 4 59 8 0 4 -26 75 -59 158 -32 82 -79 204 -105 272 l-48 122 -57 0 -57 0
-19 -52z m114 -186 c17 -51 31 -97 31 -103 0 -5 -29 -9 -65 -9 -45 0 -65 4
-65 12 0 16 61 200 65 196 2 -2 17 -45 34 -96z"/>
<path d="M6920 4330 l0 -280 55 0 55 0 0 280 0 280 -55 0 -55 0 0 -280z"/>
<path d="M7190 4163 c-26 -10 -50 -35 -50 -53 0 -28 39 -70 66 -70 13 0 33 9
44 20 28 28 25 64 -6 89 -28 22 -30 23 -54 14z"/>
<path d="M4428 3804 c-5 -4 -8 -133 -8 -286 l0 -278 60 0 60 0 0 94 0 93 100
6 c114 6 168 29 208 87 33 48 29 149 -8 204 -44 64 -93 80 -260 84 -80 2 -148
0 -152 -4z m294 -110 c30 -28 41 -69 28 -108 -16 -48 -34 -56 -129 -56 l-81 0
0 88 c0 49 3 92 8 96 12 13 155 -4 174 -20z"/>
<path d="M4968 3803 c-2 -5 -3 -133 -3 -285 l0 -278 58 0 57 0 0 105 0 105 49
0 49 0 55 -102 55 -103 61 -3 c33 -2 61 1 61 5 0 4 -26 56 -59 115 l-58 106
42 35 c114 96 67 262 -85 296 -52 12 -279 15 -282 4z m272 -103 c27 -15 43
-57 36 -95 -9 -45 -49 -65 -130 -65 l-66 0 0 83 c0 46 3 87 8 91 10 11 127 0
152 -14z"/>
<path d="M5625 3791 c-47 -22 -100 -75 -90 -90 3 -7 1 -10 -6 -9 -6 2 -20 -21
-31 -52 -16 -43 -19 -73 -16 -140 5 -83 31 -166 50 -154 4 3 5 -1 2 -9 -3 -8
9 -26 28 -42 131 -110 335 -70 403 80 20 44 24 68 24 148 0 84 -4 102 -27 149
-15 29 -33 52 -40 50 -8 -1 -11 1 -8 6 8 13 -43 54 -56 46 -6 -4 -8 -3 -5 3
21 34 -162 45 -228 14z m212 -55 c0 -8 -6 -12 -15 -9 -11 5 -11 7 0 14 7 5 13
9 14 9 0 0 1 -6 1 -14z m-23 -27 c-2 -3 8 -17 21 -29 32 -30 45 -78 45 -165 0
-125 -52 -191 -148 -188 -79 3 -126 55 -137 152 -11 103 24 209 79 231 23 10
146 9 140 -1z m36 -9 c0 -5 -2 -10 -4 -10 -3 0 -8 5 -11 10 -3 6 -1 10 4 10 6
0 11 -4 11 -10z"/>
</g>
</svg>
